<svg width="212" height="47" viewBox="0 0 212 47" fill="none" xmlns="http://www.w3.org/2000/svg">
<path d="M39.0252 19.1431V0.243065H42.6702V15.8221H51.0402V19.1431H39.0252ZM53.3426 19.1431V0.243065H66.0326V3.61807H56.9876V7.74907H65.1956V11.0431H56.9876V15.7681H66.0326V19.1431H53.3426ZM81.5329 19.3861C76.7809 19.3861 73.5409 16.4701 73.5409 11.3131V8.07307C73.5409 2.91607 76.7809 6.50287e-05 81.5329 6.50287e-05C86.2039 6.50287e-05 89.3899 2.64607 89.5249 7.23607H85.8799C85.7719 4.83307 84.2869 3.51006 81.5329 3.51006C78.6979 3.51006 77.1859 5.07607 77.1859 8.07307V11.3131C77.1859 14.3101 78.6979 16.0111 81.5329 16.0111C84.2059 16.0111 85.7179 14.6611 85.8799 12.3661H89.5249C89.3089 16.8481 86.1229 19.3861 81.5329 19.3861ZM92.7616 19.1431V0.243065H105.452V3.61807H96.4066V7.74907H104.615V11.0431H96.4066V15.7681H105.452V19.1431H92.7616ZM108.687 19.1431V0.243065H115.653L120.513 18.6031V0.243065H124.023V19.1431H116.895L112.197 0.918066V19.1431H108.687ZM132.057 19.1431V3.61807H126.576V0.243065H141.21V3.61807H135.702V19.1431H132.057ZM143.782 19.1431V0.243065H151.801C155.311 0.243065 157.525 2.59207 157.525 5.80507C157.525 9.09907 155.662 11.4211 151.801 11.4211H148.048L158.524 19.1431H152.503L147.373 15.2281V19.1431H143.782ZM147.373 8.04607H151.126C152.881 8.04607 153.745 7.47907 153.745 5.83207C153.745 4.23907 152.881 3.61807 151.126 3.61807H147.373V8.04607ZM161.369 19.1431V0.243065H174.059V3.61807H165.014V7.74907H173.222V11.0431H165.014V15.7681H174.059V19.1431H161.369ZM2.25619 46.1431V27.2431H10.2752C13.7852 27.2431 15.9992 29.5921 15.9992 32.8051C15.9992 36.0991 13.7852 38.4211 10.2752 38.4211H5.84719V46.1431H2.25619ZM5.84719 35.0461H9.60019C11.3552 35.0461 12.2192 34.4791 12.2192 32.8321C12.2192 31.2391 11.3552 30.6181 9.60019 30.6181H5.84719V35.0461ZM26.1487 46.3861C21.3967 46.3861 18.1567 43.4701 18.1567 38.3131V35.0731C18.1567 29.9161 21.3967 27.0001 26.1487 27.0001C30.9007 27.0001 34.1407 29.9161 34.1407 35.0731V38.3131C34.1407 43.4701 30.9007 46.3861 26.1487 46.3861ZM21.8017 38.3131C21.8017 41.3911 23.4487 43.0111 26.1487 43.0111C28.8487 43.0111 30.4957 41.3911 30.4957 38.3131V35.0731C30.4957 31.9951 28.8487 30.5101 26.1487 30.5101C23.4487 30.5101 21.8017 31.9951 21.8017 35.0731V38.3131ZM44.5593 46.3861C40.1313 46.3861 37.1073 43.6861 37.1073 39.3391V27.2431H40.7523V39.2851C40.7523 41.2831 41.5893 43.0111 44.5593 43.0111C47.5833 43.0111 48.4203 41.2831 48.4203 39.2851V27.2431H52.0653V39.3391C52.0653 43.6861 49.0683 46.3861 44.5593 46.3861ZM56.1244 46.1431V27.2431H64.1434C67.6534 27.2431 69.8674 29.5921 69.8674 32.8051C69.8674 36.0991 68.0044 38.4211 64.1434 38.4211H60.3904L70.8664 46.1431H64.8454L59.7154 42.2281V46.1431H56.1244ZM59.7154 35.0461H63.4684C65.2234 35.0461 66.0874 34.4791 66.0874 32.8321C66.0874 31.2391 65.2234 30.6181 63.4684 30.6181H59.7154V35.0461ZM79.0638 46.1431V27.2431H82.7088V42.8221H91.0788V46.1431H79.0638ZM104.964 46.1431L103.803 41.7961H96.3512L95.1902 46.1431H91.4912L96.5672 27.2431H103.641L108.663 46.1431H104.964ZM97.2962 38.2861H102.858L100.077 27.9181L97.2962 38.2861ZM116.452 46.1431V27.2431H124.471C127.981 27.2431 130.195 29.5921 130.195 32.8051C130.195 36.0991 127.981 38.4211 124.471 38.4211H120.043V46.1431H116.452ZM120.043 35.0461H123.796C125.551 35.0461 126.415 34.4791 126.415 32.8321C126.415 31.2391 125.551 30.6181 123.796 30.6181H120.043V35.0461ZM140.345 46.3861C135.593 46.3861 132.353 43.4701 132.353 38.3131V35.0731C132.353 29.9161 135.593 27.0001 140.345 27.0001C145.097 27.0001 148.337 29.9161 148.337 35.0731V38.3131C148.337 43.4701 145.097 46.3861 140.345 46.3861ZM135.998 38.3131C135.998 41.3911 137.645 43.0111 140.345 43.0111C143.045 43.0111 144.692 41.3911 144.692 38.3131V35.0731C144.692 31.9951 143.045 30.5101 140.345 30.5101C137.645 30.5101 135.998 31.9951 135.998 35.0731V38.3131ZM151.574 46.1431V27.2431H164.264V30.6181H155.219V34.7491H163.427V38.0431H155.219V42.7681H164.264V46.1431H151.574ZM156.785 25.2991L158.189 21.0871H161.267L159.485 25.2991H156.785ZM173.574 46.3861C168.984 46.3861 166.257 43.6321 166.149 39.7981H169.767C169.875 41.6611 171.252 43.0111 173.574 43.0111C176.139 43.0111 177.246 41.9581 177.246 40.7971C177.246 39.6091 176.49 38.9881 175.086 38.6101L171.981 37.7731C169.119 36.9901 167.094 35.5861 167.094 32.5621C167.094 29.3491 169.686 27.0001 173.844 27.0001C178.191 27.0001 180.837 29.7811 180.891 33.1291H177.273C177.219 31.7791 176.112 30.3751 173.844 30.3751C171.576 30.3751 170.739 31.4821 170.739 32.4001C170.739 33.6151 171.576 34.0201 173.007 34.3981L176.274 35.2891C179.514 36.1801 180.918 38.1241 180.918 40.7971C180.918 44.1721 177.678 46.3861 173.574 46.3861ZM183.222 46.1431V42.7681H187.056V30.6181H183.222V27.2431H194.616V30.6181H190.701V42.7681H194.616V46.1431H183.222ZM198.138 46.1431V27.2431H210.828V30.6181H201.783V34.7491H209.991V38.0431H201.783V42.7681H210.828V46.1431H198.138Z" fill="black"/>
</svg>
